<?xml version="1.0" standalone="no"?>
<!DOCTYPE svg PUBLIC "-//W3C//DTD SVG 20010904//EN"
 "http://www.w3.org/TR/2001/REC-SVG-20010904/DTD/svg10.dtd">
<svg version="1.0" xmlns="http://www.w3.org/2000/svg"
 width="1200.000000pt" height="800.000000pt" viewBox="0 0 1200.000000 800.000000"
 preserveAspectRatio="xMidYMid meet">

<g transform="translate(0.000000,800.000000) scale(0.100000,-0.100000)"
fill="#000000" stroke="none">
<path d="M0 4000 l0 -4000 4127 2 c3511 3 4127 5 4131 17 3 9 0 11 -8 6 -8 -5
-11 -4 -6 3 4 6 13 9 20 6 7 -3 16 2 20 11 3 9 2 13 -4 10 -6 -3 -7 1 -4 9 7
19 21 21 26 4 3 -7 7 -2 10 10 4 12 2 22 -3 22 -5 0 -9 5 -9 12 0 6 3 8 7 5 3
-4 12 1 20 11 8 9 11 11 8 4 -6 -12 -3 -12 15 -2 16 9 19 14 10 20 -9 6 -9 9
0 15 6 4 9 13 6 21 -3 7 2 20 10 29 8 8 12 21 8 27 -4 7 -4 10 0 7 11 -10 53
36 60 66 5 18 12 25 21 21 9 -3 24 8 40 31 23 35 24 38 8 56 -14 15 -14 18 -3
15 8 -2 14 3 12 10 -1 6 1 11 5 11 27 -4 35 1 23 16 -11 13 -10 14 3 10 8 -4
18 -1 23 6 5 8 3 10 -5 4 -9 -5 -9 -1 1 14 7 12 19 19 26 16 9 -3 10 0 2 15
-9 16 -5 23 25 43 28 19 32 26 20 31 -13 4 -13 9 -3 25 7 11 16 17 20 15 4 -3
8 0 8 6 0 6 4 9 9 5 5 -3 13 0 17 6 4 8 3 9 -4 5 -7 -4 -12 -1 -12 10 0 11 6
15 20 11 15 -4 20 0 20 14 0 10 5 19 12 19 6 0 8 3 5 6 -4 4 -13 1 -21 -5 -12
-10 -14 -9 -9 8 3 12 11 17 19 14 9 -3 12 0 9 8 -3 8 -1 20 4 28 8 13 12 13
27 0 16 -13 16 -12 6 8 -15 28 -15 36 0 27 8 -5 9 -2 5 9 -5 13 -1 17 14 17
16 0 20 5 16 20 -3 13 0 20 9 20 8 0 20 11 26 25 6 14 15 25 20 25 5 0 7 4 3
9 -3 5 -1 12 5 16 5 3 10 15 10 26 0 11 4 18 9 15 5 -3 11 4 14 15 4 13 10 19
19 14 7 -3 4 1 -6 9 -18 15 -18 16 -2 16 10 0 14 5 11 11 -8 12 26 40 38 32 5
-3 4 4 -2 14 -10 20 -6 33 11 33 4 0 8 -7 8 -16 0 -8 4 -13 10 -9 6 4 6 15 0
30 -7 17 -6 25 1 25 6 0 8 7 5 16 -6 15 20 51 30 41 10 -9 45 33 38 45 -5 7
-2 9 8 5 16 -6 44 36 39 61 -1 7 3 11 10 10 6 -2 14 3 16 11 4 9 -1 11 -18 7
-14 -3 -10 1 9 9 18 9 30 20 27 25 -3 6 -1 10 5 10 6 0 8 5 5 10 -3 5 -2 10 4
10 5 0 16 14 25 30 16 33 11 40 -10 13 -12 -16 -12 -16 -7 5 5 22 13 26 43 23
12 -2 13 0 1 7 -14 10 -7 32 10 32 6 0 8 -4 4 -9 -3 -5 0 -13 6 -17 7 -4 9 -3
5 4 -3 6 -2 13 3 16 5 4 8 14 6 24 -1 9 2 23 7 29 6 7 8 19 5 27 -5 12 -1 13
18 6 14 -5 27 -5 30 -1 7 13 -5 41 -18 41 -6 0 -7 3 -4 6 4 4 14 1 22 -6 14
-11 14 -10 6 13 -10 26 -1 31 27 14 6 -5 12 -7 13 -5 6 25 6 39 -2 44 -15 9
-10 34 6 28 17 -7 20 7 4 23 -7 7 -4 9 14 6 20 -4 27 2 41 32 10 20 15 43 12
50 -3 10 0 12 12 8 15 -6 15 -5 3 11 -8 9 -10 16 -5 15 23 -4 33 2 27 18 -5
12 -3 14 7 8 10 -6 12 -4 7 9 -5 11 -3 15 5 10 7 -5 9 -2 5 9 -4 12 -2 14 10
10 10 -4 14 -2 10 4 -4 6 3 13 15 17 22 5 23 6 3 21 -11 8 -15 15 -10 14 6 -1
19 -1 30 1 l20 1 -20 9 c-17 7 -17 9 -2 9 9 1 17 8 17 17 0 9 -5 12 -12 8 -7
-4 -8 -3 -4 4 4 6 13 9 21 5 10 -3 15 1 15 13 0 16 2 17 10 4 8 -12 10 -10 10
8 0 13 -4 20 -10 17 -5 -3 -10 1 -10 10 0 13 4 14 21 5 19 -11 20 -10 10 9
-10 18 -9 20 6 14 13 -5 15 -3 9 12 -4 11 -4 17 -1 13 4 -3 15 1 26 10 12 11
15 18 8 23 -15 9 -2 29 19 29 13 0 13 2 -4 15 -16 13 -16 14 -1 9 9 -3 17 -1
17 5 0 6 7 11 15 11 8 0 15 6 15 14 0 8 6 17 12 19 8 3 5 6 -6 6 -18 1 -18 2
1 19 10 9 12 13 3 7 -13 -9 -13 -8 0 10 23 31 60 65 71 65 16 0 10 17 -8 24
-14 6 -15 9 -4 16 8 4 21 6 30 3 11 -3 11 -1 -2 7 -18 11 -18 12 0 25 10 7 18
17 19 22 0 4 4 16 8 26 9 18 36 24 36 6 0 -5 -4 -8 -9 -4 -5 3 -12 1 -15 -4
-3 -5 1 -11 8 -14 19 -7 24 9 19 53 -3 30 -2 32 6 13 6 -13 13 -23 16 -23 4 0
3 5 0 10 -3 6 -2 10 3 10 6 0 8 9 5 20 -3 12 0 20 7 20 7 0 9 8 5 19 -4 14 0
21 15 26 11 3 20 13 20 22 0 9 6 13 14 10 8 -3 17 0 20 8 3 9 0 12 -10 8 -7
-3 -14 0 -14 6 0 6 11 11 25 11 22 0 24 3 15 19 -7 13 -7 22 0 26 5 3 10 1 10
-4 0 -6 4 -11 10 -11 5 0 7 6 4 14 -3 8 0 17 6 21 8 5 8 11 -1 21 -10 12 -10
15 2 12 8 -2 13 3 11 10 -1 7 5 15 13 18 8 4 15 12 15 20 0 8 6 14 13 14 8 0
22 10 33 22 12 13 13 18 4 13 -10 -6 -9 -2 3 12 13 15 15 23 7 28 -8 5 -5 12
9 21 13 9 18 21 14 32 -6 15 -3 14 18 -3 18 -15 20 -16 10 -2 -9 11 -10 17 -2
17 6 0 11 7 11 16 0 9 -5 13 -12 9 -7 -4 -4 0 6 9 10 8 23 13 29 9 6 -3 7 -1
4 4 -4 6 3 13 14 16 12 3 18 10 14 16 -4 8 -11 6 -21 -4 -9 -8 -21 -15 -27
-15 -7 0 0 10 15 23 15 13 29 36 32 51 3 16 8 31 12 35 4 3 4 -2 1 -11 -4 -10
-3 -18 2 -18 5 0 12 11 15 25 4 16 13 25 27 25 11 0 17 5 14 10 -3 6 0 10 7
10 10 0 9 3 -2 10 -12 7 -8 12 19 23 31 13 31 15 11 20 -22 6 -20 27 3 27 7 0
6 -4 -3 -10 -9 -6 -10 -10 -3 -10 16 0 27 20 28 49 0 24 30 44 49 33 5 -3 6 0
2 6 -4 7 -2 12 3 12 6 0 11 4 11 10 0 5 -7 7 -16 3 -12 -4 -15 -2 -12 8 3 8
11 13 17 11 6 -1 11 2 11 7 0 5 8 12 18 14 16 4 16 5 0 6 -20 1 -24 16 -6 27
7 4 8 3 4 -4 -4 -7 -3 -12 2 -12 6 0 13 11 16 25 4 14 11 23 16 20 5 -3 12 0
16 6 4 8 3 9 -4 5 -7 -4 -12 -1 -12 9 0 8 7 18 15 21 8 4 15 10 15 16 0 5 -5
6 -12 2 -6 -4 -8 -3 -4 4 3 6 15 9 26 7 16 -3 18 0 10 20 -7 18 -4 27 11 41
10 9 19 23 19 31 0 7 5 13 10 13 14 0 12 -11 -5 -34 -24 -32 -17 -40 8 -10 14
16 23 38 22 55 -1 16 2 26 7 23 17 -11 27 7 18 30 -8 21 -6 23 12 19 15 -5 17
-8 6 -15 -10 -8 -10 -9 2 -5 8 2 13 12 12 23 -2 10 -5 23 -5 28 -1 5 8 12 21
15 13 3 23 9 23 14 -3 30 2 39 9 17 l8 -25 1 25 c1 14 10 31 22 38 16 10 18
17 10 25 -17 17 -13 34 9 40 11 3 20 10 20 17 0 6 -4 8 -10 5 -6 -3 -10 -1
-10 6 0 6 8 9 20 6 18 -5 25 4 21 27 -1 5 6 6 15 2 13 -5 14 -3 6 7 -7 8 -7
18 -2 27 8 12 10 11 10 -5 1 -19 1 -19 11 -2 6 9 12 27 14 38 2 12 12 28 22
36 10 8 12 11 3 7 -9 -4 -7 2 5 13 11 11 25 18 30 15 6 -3 1 5 -10 18 l-20 23
22 -5 c30 -8 38 6 16 28 -16 16 -16 17 -1 12 9 -4 22 0 29 9 16 19 20 43 8 43
-5 0 -9 -9 -9 -20 0 -11 -4 -20 -9 -20 -14 0 0 41 16 47 8 3 19 0 23 -7 5 -8
10 -9 14 -2 3 6 2 13 -4 17 -6 4 -8 11 -4 16 3 5 10 7 15 4 5 -4 9 3 9 15 0
12 4 19 9 15 5 -3 12 -1 16 5 3 5 2 10 -2 10 -5 0 -9 8 -10 19 -1 14 3 17 19
13 14 -3 19 -1 14 6 -3 6 -2 13 4 17 5 3 10 1 10 -5 0 -6 5 -8 11 -4 8 4 7 9
-2 14 -16 10 -21 40 -6 37 6 -1 16 8 22 21 17 31 27 40 20 17 -3 -11 1 -8 8 8
7 15 17 24 22 20 6 -5 2 1 -8 13 -19 23 -14 36 11 27 10 -5 13 -3 8 6 -5 8 -1
14 13 18 11 3 18 9 15 14 -3 5 0 9 5 9 6 0 11 5 11 10 0 12 -22 9 -33 -5 -5
-6 -7 -4 -4 5 2 8 9 16 15 16 7 1 15 3 20 4 4 1 10 2 14 1 4 0 5 6 2 14 -4 8
-10 12 -15 9 -15 -9 -10 3 8 17 14 12 16 12 9 -1 -4 -9 -2 -8 7 2 8 10 18 14
22 10 4 -4 5 6 1 21 -4 19 -3 26 4 22 6 -3 10 3 10 14 0 14 6 21 18 20 10 0
12 -3 5 -6 -7 -2 -13 -9 -13 -14 0 -4 7 -6 16 -2 11 4 14 16 12 41 -2 25 1 36
12 39 12 4 12 3 1 -5 -9 -7 -11 -15 -4 -27 7 -12 13 -14 17 -6 4 6 2 11 -4 11
-6 0 -8 5 -5 10 4 6 10 8 15 5 4 -3 6 4 3 15 -3 11 -10 17 -17 13 -7 -4 -6 -1
1 9 7 8 10 18 6 22 -4 4 1 4 11 0 14 -5 17 -4 12 5 -5 7 -2 10 6 9 7 -2 13 6
13 17 0 15 7 20 25 20 21 0 25 4 22 27 -3 23 0 27 13 21 15 -5 16 -3 6 15 -9
17 -9 22 1 22 15 0 40 49 32 61 -3 5 -1 9 5 9 5 0 12 -6 15 -12 4 -7 4 -3 2
10 -4 18 -1 22 11 18 14 -6 14 -4 2 11 -9 11 -10 14 -1 9 6 -4 12 -2 12 3 0 6
10 11 23 11 16 0 18 3 8 9 -9 6 -10 11 -2 15 15 10 14 29 -1 21 -7 -4 -2 2 11
13 14 11 26 33 28 48 6 38 20 53 45 49 16 -3 19 -2 11 6 -6 6 -9 18 -5 27 5
13 7 13 14 -4 7 -15 8 -14 5 7 -3 18 3 30 15 38 10 6 16 16 13 21 -3 6 -1 10
5 10 7 0 9 7 6 16 -3 8 -2 12 4 9 10 -6 34 12 39 30 2 6 7 9 13 7 5 -1 7 2 3
8 -3 5 -1 10 6 10 8 0 8 4 1 13 -12 14 20 62 33 49 4 -4 5 7 4 23 -3 20 0 29
9 27 6 -1 12 3 12 9 0 5 3 8 8 6 4 -2 15 4 25 15 18 19 9 26 -10 7 -9 -9 -11
-7 -9 7 2 11 10 18 17 17 8 -2 20 6 27 17 10 16 9 18 -3 14 -11 -5 -13 -2 -9
10 3 9 11 16 18 16 6 0 4 5 -4 10 -13 8 -13 10 2 10 21 0 79 48 76 64 -3 17
12 56 22 56 6 0 10 430 10 1070 l0 1070 -6000 0 -6000 0 0 -4000z m5125 2202
c294 -67 571 -215 808 -433 l68 -62 47 45 c159 152 392 303 577 374 219 83
373 108 614 101 155 -4 190 -8 292 -35 524 -139 891 -534 1006 -1082 14 -68
18 -132 18 -315 -1 -212 -3 -240 -28 -358 -68 -317 -203 -620 -418 -937 -43
-63 -100 -142 -126 -175 -44 -54 -53 -60 -90 -63 -34 -3 -44 1 -62 24 -35 44
-27 73 40 160 204 263 379 596 459 870 68 234 89 511 55 724 -64 394 -307 730
-655 905 -177 89 -337 126 -545 126 -155 0 -272 -19 -414 -67 -239 -79 -432
-201 -647 -405 -123 -118 -125 -118 -248 0 -158 150 -279 238 -444 321 -207
104 -398 150 -617 151 -333 0 -629 -122 -861 -356 -174 -176 -297 -422 -339
-675 -19 -122 -19 -357 0 -480 18 -113 64 -288 100 -384 23 -62 94 -225 102
-236 2 -2 86 78 187 179 174 174 185 183 222 183 47 0 74 -29 74 -80 0 -33
-15 -51 -200 -237 l-200 -200 65 -104 c139 -221 305 -423 549 -666 290 -289
584 -525 986 -790 118 -78 229 -150 247 -160 l32 -19 205 200 c277 268 526
505 740 704 248 230 427 426 472 516 77 155 48 313 -73 393 -39 26 -70 36
-180 57 -27 5 -46 38 -45 77 0 20 18 46 58 90 31 34 71 91 88 127 28 58 31 75
31 155 0 73 -4 98 -22 130 -25 48 -75 96 -123 120 -56 29 -163 31 -237 6 -80
-27 -94 -26 -127 4 -31 29 -32 52 -6 128 48 137 9 276 -97 346 -123 82 -299
49 -442 -83 -67 -61 -101 -71 -141 -38 -17 14 -25 35 -31 81 -14 103 -58 171
-139 215 -94 51 -215 44 -330 -21 -27 -15 -223 -203 -480 -459 -394 -393 -438
-434 -468 -434 -59 0 -97 63 -69 116 9 16 210 223 449 459 386 384 440 434
499 463 102 49 177 65 294 60 94 -3 108 -6 178 -41 82 -40 144 -100 180 -173
l20 -42 61 33 c87 48 162 66 264 66 131 0 210 -30 299 -113 92 -88 133 -185
133 -315 l0 -73 68 0 c128 -1 223 -38 308 -122 92 -90 130 -195 122 -341 -6
-97 -30 -179 -75 -249 -12 -21 -23 -41 -23 -45 0 -5 25 -21 55 -37 218 -114
271 -438 111 -679 -25 -37 -243 -257 -600 -605 -309 -300 -610 -595 -671 -654
-106 -103 -109 -108 -90 -122 53 -41 133 0 555 279 400 265 681 489 986 788
195 189 207 196 258 156 20 -16 26 -29 26 -61 0 -39 -6 -47 -117 -161 -370
-375 -855 -747 -1403 -1075 -162 -97 -175 -102 -250 -102 -75 0 -84 4 -259
108 -999 595 -1731 1302 -2071 1997 -116 239 -182 444 -216 676 -22 154 -15
453 14 584 128 573 548 981 1112 1081 114 20 429 12 545 -14z m6822 -417 c-4
-8 -11 -15 -17 -15 -6 0 -6 7 2 20 14 22 24 19 15 -5z m-207 -295 c0 -5 -5
-10 -11 -10 -5 0 -7 5 -4 10 3 6 8 10 11 10 2 0 4 -4 4 -10z m-6105 -362 c120
-63 163 -222 97 -362 -51 -110 -127 -177 -243 -216 -139 -47 -274 5 -325 125
-10 25 -16 66 -16 107 0 151 119 303 275 354 53 17 172 13 212 -8z m625 -118
c117 -32 189 -160 162 -288 -55 -260 -360 -412 -531 -266 -63 54 -84 110 -79
204 9 161 108 285 273 342 56 20 123 23 175 8z m5165 -50 c3 -5 2 -10 -4 -10
-5 0 -13 5 -16 10 -3 6 -2 10 4 10 5 0 13 -4 16 -10z m-4635 -466 c45 -19 86
-59 113 -109 35 -64 30 -171 -10 -257 -63 -135 -182 -219 -321 -226 -89 -5
-144 13 -195 65 -52 52 -71 107 -65 195 15 237 275 416 478 332z m-1360 -80
c25 -12 65 -38 90 -59 64 -54 93 -64 232 -74 174 -13 240 -43 346 -155 86 -91
121 -196 122 -369 0 -71 15 -107 73 -183 58 -75 77 -134 77 -232 -1 -95 -12
-148 -51 -229 -86 -180 -287 -302 -480 -291 -152 9 -267 95 -409 304 -96 142
-240 286 -385 384 -205 139 -281 239 -292 382 -17 229 132 444 366 526 86 30
240 28 311 -4z m5385 -384 c3 -5 1 -10 -4 -10 -6 0 -11 5 -11 10 0 6 2 10 4
10 3 0 8 -4 11 -10z m-3870 -229 c50 -22 109 -86 125 -136 19 -58 9 -170 -22
-237 -36 -77 -112 -152 -196 -191 -56 -26 -79 -31 -142 -32 -83 0 -133 20
-182 72 -87 91 -81 264 13 387 99 129 284 192 404 137z m2468 -1966 c4 -8 2
-17 -3 -20 -6 -4 -10 3 -10 14 0 25 6 27 13 6z m-303 -500 c0 -2 -6 -8 -13
-14 -10 -8 -14 -7 -14 2 0 8 6 14 14 14 7 0 13 -1 13 -2z m-598 -932 c-6 -2
-10 -9 -7 -14 4 -5 -1 -6 -9 -3 -10 4 -13 0 -10 -14 4 -12 0 -19 -9 -19 -7 0
-14 7 -14 16 0 19 26 41 47 40 10 0 11 -2 2 -6z"/>
<path d="M5454 4976 c-83 -36 -163 -153 -149 -217 8 -35 49 -69 84 -69 14 0
49 11 76 24 78 36 137 116 139 187 2 75 -69 110 -150 75z"/>
<path d="M6093 4830 c-77 -44 -136 -141 -125 -207 5 -31 49 -63 86 -63 103 1
234 145 212 234 -17 70 -88 85 -173 36z"/>
<path d="M6610 4334 c-109 -47 -179 -196 -117 -251 34 -31 56 -35 106 -18 64
21 114 65 145 127 31 63 33 97 5 132 -16 21 -29 26 -62 26 -23 -1 -58 -8 -77
-16z"/>
<path d="M5148 4256 c-110 -45 -188 -132 -222 -246 -19 -64 -20 -99 -4 -152
18 -60 74 -115 214 -213 200 -139 299 -237 426 -423 94 -140 147 -195 210
-222 134 -57 325 31 404 187 25 50 29 69 29 144 0 92 4 82 -85 204 -37 51 -58
134 -64 258 -7 116 -27 172 -89 235 -65 67 -104 83 -231 93 -174 14 -239 35
-315 104 -20 19 -50 39 -65 45 -48 18 -146 12 -208 -14z"/>
<path d="M6759 3640 c-81 -43 -149 -152 -133 -215 8 -33 49 -65 83 -65 41 0
127 47 161 88 35 43 63 121 54 148 -4 10 -16 29 -27 42 -26 28 -87 29 -138 2z"/>
<path d="M11816 5587 c3 -10 9 -15 12 -12 3 3 0 11 -7 18 -10 9 -11 8 -5 -6z"/>
<path d="M10775 3950 c3 -5 8 -10 11 -10 2 0 4 5 4 10 0 6 -5 10 -11 10 -5 0
-7 -4 -4 -10z"/>
<path d="M10091 2871 c-8 -5 -9 -11 -3 -15 5 -3 12 1 16 9 6 17 6 18 -13 6z"/>
<path d="M9946 2657 c3 -10 9 -15 12 -12 3 3 0 11 -7 18 -10 9 -11 8 -5 -6z"/>
<path d="M9005 1210 c-3 -5 -2 -10 4 -10 5 0 13 5 16 10 3 6 2 10 -4 10 -5 0
-13 -4 -16 -10z"/>
<path d="M8415 259 c-4 -6 -5 -12 -2 -15 2 -3 7 2 10 11 7 17 1 20 -8 4z"/>
</g>
</svg>
